<svg id="Layer_1" data-name="Layer 1" xmlns="http://www.w3.org/2000/svg" viewBox="0 0 307.72 95.87" style="--logo-scroll-position:-50%; --logo-scroll-margin:50px;"><defs><style>.cls-1{fill:#373736;}</style></defs><title>otter</title><path class="cls-1" d="M191.47,79.53v41.16H177.76V79.53H166.49V67.91h36.26V79.53Z" transform="translate(-22.28 -24.82)"/><path class="cls-1" d="M228.86,79.53v41.16H215.13V79.53H203.87V67.91h36.26V79.53Z" transform="translate(-22.28 -24.82)"/><path class="cls-1" d="M276.24,79.53H259.93v8.82h15.4V100h-15.4v9.1h16.31v11.62h-30V67.91h30Z" transform="translate(-22.28 -24.82)"/><path class="cls-1" d="M330,120.69H312.92l-13.09-20.3v20.3H286.11V67.91h21.35a21,21,0,0,1,7.7,1.29,14.49,14.49,0,0,1,8.64,8.71,18,18,0,0,1,1.09,6.3A15.48,15.48,0,0,1,322,94a14.63,14.63,0,0,1-8.58,5.08ZM299.83,91.5h2.59a10,10,0,0,0,6.23-1.68,6.46,6.46,0,0,0,0-9.66,10,10,0,0,0-6.23-1.68h-2.59Z" transform="translate(-22.28 -24.82)"/><path class="cls-1" d="M78.1,80.21c-.49-4.73,1.42-7.27,5.67-7.51,4.5-.25,6.93,2.26,8.09,6.35.16.57.42,1.12.56,1.69,1.5,5.83,1.55,12.85,9.7,13.8,9.47,1.1,19.08,2.22,26.46-6.08,1-1.17,2.12-2.31,3.66-4-3.66-.92-5.73,1.54-8.16,2.5-3.15,1.23-6.11,2.17-8.28-1.52s-2-7,1.47-9.48a54.66,54.66,0,0,1,8.2-4.71c7.82-3.88,9.64-12.39,3.95-19.17-3.54-4.22-8.33-6.55-13.25-8.76-4.1-1.84-9.16-3.56-8.22-9.38s5.62-7.53,10.84-8.56,10.2.56,15.32-.52c2.16-.45,4.83,1.37,4.9,3.49.15,4.33,3.36,6,5.84,8.32C162,53,166.33,84.23,153.72,101.54c-13.47,18.49-39.54,24.31-59.58,13.19A98.69,98.69,0,0,1,69.76,96c-3.78-4-7.52-8.23-12.89-10.29-9.73-3.72-19.64-.3-25.3,8.57-1.52,2.38-2.72,6.15-6.49,4.6s-2.85-5.29-2.28-8.38c1.79-9.77,12.63-17.3,25.76-18.29C59,71.37,68.34,75,78.1,80.21Zm58.19,25.39C147.81,99.17,154,89,155.75,76.39c1.68-12.05-.38-23.38-9.61-32.64C156.22,66.64,152.19,87,136.29,105.6Z" transform="translate(-22.28 -24.82)"/></svg>
